<svg role="img" aria-label="Drawn using GraphViz with neato layout" width="215pt" height="254pt" viewBox="0 0 214.98 254.2" xmlns="http://www.w3.org/2000/svg"><title>Drawn using GraphViz with neato layout</title><desc>digraph {
    A -&gt; B;
    B -&gt; C;
    C -&gt; D;
    D -&gt; A;
    D -&gt; E -&gt; F -&gt; G -&gt; D;
}</desc><g class="graph"><path fill="#fff" stroke="transparent" d="M0 254.2V0h214.98v254.2H0z"></path><g class="node" transform="translate(4 250.2)"><ellipse fill="none" stroke="#000" cx="179.98" cy="-96.4" rx="27" ry="18"></ellipse><text text-anchor="middle" x="179.98" y="-92.2" font-family="Times,serif" font-size="14">A</text></g><g class="node" transform="translate(4 250.2)"><ellipse fill="none" stroke="#000" cx="174.99" cy="-18" rx="27" ry="18"></ellipse><text text-anchor="middle" x="174.99" y="-13.8" font-family="Times,serif" font-size="14">B</text></g><g class="edge" transform="translate(4 250.2)"><path fill="none" stroke="#000" d="M178.82-78.22c-.6 9.5-1.36 21.34-2.03 32"></path><path stroke="#000" d="M180.27-45.84l-4.13 9.76-2.86-10.21 6.99.45z"></path></g><g class="node" transform="translate(4 250.2)"><ellipse fill="none" stroke="#000" cx="99.84" cy="-41.52" rx="27" ry="18"></ellipse><text text-anchor="middle" x="99.84" y="-37.32" font-family="Times,serif" font-size="14">C</text></g><g class="edge" transform="translate(4 250.2)"><path fill="none" stroke="#000" d="M150.38-25.7c-5.19-1.63-10.75-3.37-16.23-5.08"></path><path stroke="#000" d="M133-27.47l-8.5-6.33 10.59-.35-2.09 6.68z"></path></g><g class="node" transform="translate(4 250.2)"><ellipse fill="none" stroke="#000" cx="103.22" cy="-122.41" rx="27" ry="18"></ellipse><text text-anchor="middle" x="103.22" y="-118.21" font-family="Times,serif" font-size="14">D</text></g><g class="edge" transform="translate(4 250.2)"><path fill="none" stroke="#000" d="M100.61-59.88c.42-10.1.95-22.86 1.43-34.21"></path><path stroke="#000" d="M98.55-94.56l3.92-9.85 3.08 10.14-7-.29z"></path></g><g class="edge" transform="translate(4 250.2)"><path fill="none" stroke="#000" d="M127.51-114.18c5.94 2.01 12.4 4.2 18.69 6.33"></path><path stroke="#000" d="M147.5-111.1l8.35 6.52-10.59.11 2.24-6.63z"></path></g><g class="node" transform="translate(4 250.2)"><ellipse fill="none" stroke="#000" cx="108.05" cy="-203.32" rx="27" ry="18"></ellipse><text text-anchor="middle" x="108.05" y="-199.12" font-family="Times,serif" font-size="14">E</text></g><g class="edge" transform="translate(4 250.2)"><path fill="none" stroke="#000" d="M104.32-140.77c.6-10.11 1.36-22.86 2.04-34.22"></path><path stroke="#000" d="M102.89-175.54l4.09-9.77 2.9 10.19-6.99-.42z"></path></g><g class="node" transform="translate(4 250.2)"><ellipse fill="none" stroke="#000" cx="33.54" cy="-228.2" rx="27" ry="18"></ellipse><text text-anchor="middle" x="33.54" y="-224" font-family="Times,serif" font-size="14">F</text></g><g class="edge" transform="translate(4 250.2)"><path fill="none" stroke="#000" d="M83.66-211.46c-5.2-1.74-10.78-3.6-16.27-5.43"></path><path stroke="#000" d="M66.12-213.63l-8.38-6.49 10.59-.15-2.21 6.64z"></path></g><g class="node" transform="translate(4 250.2)"><ellipse fill="none" stroke="#000" cx="27" cy="-149.72" rx="27" ry="18"></ellipse><text text-anchor="middle" x="27" y="-145.52" font-family="Times,serif" font-size="14">G</text></g><g class="edge" transform="translate(4 250.2)"><path fill="none" stroke="#000" d="M32.02-210c-.79 9.51-1.78 21.36-2.67 32.03"></path><path stroke="#000" d="M32.83-177.5l-4.32 9.68-2.66-10.26 6.98.58z"></path></g><g class="edge" transform="translate(4 250.2)"><path fill="none" stroke="#000" d="M51.12-141.08l18.56 6.65"></path><path stroke="#000" d="M71.03-137.67l8.23 6.67-10.59-.08 2.36-6.59z"></path></g></g></svg>